<mxfile host="app.diagrams.net" modified="2024-05-02T13:40:03.285Z" agent="Mozilla/5.0 (Windows NT 10.0; Win64; x64) AppleWebKit/537.36 (KHTML, like Gecko) Chrome/124.0.0.0 Safari/537.36" etag="FgSo4Mv8hQ0t67Shan4g" version="24.0.7" type="device">
  <diagram name="Сторінка-1" id="3SSm-4QWAwPYhdhUMAkA">
    <mxGraphModel dx="2345" dy="949" grid="1" gridSize="10" guides="1" tooltips="1" connect="1" arrows="1" fold="1" page="1" pageScale="1" pageWidth="827" pageHeight="1169" math="0" shadow="0">
      <root>
        <mxCell id="0" />
        <mxCell id="1" parent="0" />
        <mxCell id="F3helOzTDBdzIVGRm2Er-1" value="&amp;nbsp;" style="shape=umlActor;verticalLabelPosition=bottom;verticalAlign=top;html=1;outlineConnect=0;" vertex="1" parent="1">
          <mxGeometry x="160" y="100" width="30" height="60" as="geometry" />
        </mxCell>
        <mxCell id="F3helOzTDBdzIVGRm2Er-4" value="" style="endArrow=none;dashed=1;html=1;rounded=0;" edge="1" parent="1" target="F3helOzTDBdzIVGRm2Er-1">
          <mxGeometry width="50" height="50" relative="1" as="geometry">
            <mxPoint x="175" y="850" as="sourcePoint" />
            <mxPoint x="170" y="220" as="targetPoint" />
          </mxGeometry>
        </mxCell>
        <mxCell id="F3helOzTDBdzIVGRm2Er-5" value="Booking&amp;nbsp;&lt;div&gt;Service&lt;/div&gt;" style="rounded=1;whiteSpace=wrap;html=1;" vertex="1" parent="1">
          <mxGeometry x="250" y="110" width="100" height="40" as="geometry" />
        </mxCell>
        <mxCell id="F3helOzTDBdzIVGRm2Er-6" value="Network monitoring System" style="rounded=1;whiteSpace=wrap;html=1;" vertex="1" parent="1">
          <mxGeometry x="400" y="110" width="120" height="40" as="geometry" />
        </mxCell>
        <mxCell id="F3helOzTDBdzIVGRm2Er-7" value="Notification&lt;div&gt;System&lt;/div&gt;" style="rounded=1;whiteSpace=wrap;html=1;" vertex="1" parent="1">
          <mxGeometry x="727" y="110" width="96" height="40" as="geometry" />
        </mxCell>
        <mxCell id="F3helOzTDBdzIVGRm2Er-8" value="1. booking request" style="html=1;verticalAlign=bottom;startArrow=circle;startFill=1;endArrow=open;startSize=6;endSize=8;curved=0;rounded=0;" edge="1" parent="1">
          <mxGeometry x="-0.0769" width="80" relative="1" as="geometry">
            <mxPoint x="170" y="260" as="sourcePoint" />
            <mxPoint x="295" y="260" as="targetPoint" />
            <mxPoint as="offset" />
          </mxGeometry>
        </mxCell>
        <mxCell id="F3helOzTDBdzIVGRm2Er-10" value="" style="endArrow=none;dashed=1;html=1;rounded=0;" edge="1" parent="1" source="F3helOzTDBdzIVGRm2Er-14">
          <mxGeometry width="50" height="50" relative="1" as="geometry">
            <mxPoint x="300" y="631.6000366210938" as="sourcePoint" />
            <mxPoint x="300" y="170" as="targetPoint" />
          </mxGeometry>
        </mxCell>
        <mxCell id="F3helOzTDBdzIVGRm2Er-11" value="" style="endArrow=open;endFill=1;endSize=12;html=1;rounded=0;exitX=0.5;exitY=0.045;exitDx=0;exitDy=0;exitPerimeter=0;" edge="1" parent="1">
          <mxGeometry width="160" relative="1" as="geometry">
            <mxPoint x="300" y="260" as="sourcePoint" />
            <mxPoint x="460" y="260" as="targetPoint" />
          </mxGeometry>
        </mxCell>
        <mxCell id="F3helOzTDBdzIVGRm2Er-12" value="2. process of booking" style="text;html=1;align=center;verticalAlign=middle;resizable=0;points=[];autosize=1;strokeColor=none;fillColor=none;" vertex="1" parent="1">
          <mxGeometry x="305" y="230" width="140" height="30" as="geometry" />
        </mxCell>
        <mxCell id="F3helOzTDBdzIVGRm2Er-15" value="" style="endArrow=none;dashed=1;html=1;rounded=0;" edge="1" parent="1" source="F3helOzTDBdzIVGRm2Er-16">
          <mxGeometry width="50" height="50" relative="1" as="geometry">
            <mxPoint x="465" y="230" as="sourcePoint" />
            <mxPoint x="465" y="170" as="targetPoint" />
          </mxGeometry>
        </mxCell>
        <mxCell id="F3helOzTDBdzIVGRm2Er-17" value="" style="endArrow=none;dashed=1;html=1;rounded=0;" edge="1" parent="1" target="F3helOzTDBdzIVGRm2Er-14">
          <mxGeometry width="50" height="50" relative="1" as="geometry">
            <mxPoint x="300" y="850" as="sourcePoint" />
            <mxPoint x="300" y="170" as="targetPoint" />
          </mxGeometry>
        </mxCell>
        <mxCell id="F3helOzTDBdzIVGRm2Er-14" value="" style="html=1;points=[[0,0,0,0,5],[0,1,0,0,-5],[1,0,0,0,5],[1,1,0,0,-5]];perimeter=orthogonalPerimeter;outlineConnect=0;targetShapes=umlLifeline;portConstraint=eastwest;newEdgeStyle={&quot;curved&quot;:0,&quot;rounded&quot;:0};" vertex="1" parent="1">
          <mxGeometry x="295" y="240" width="10" height="490" as="geometry" />
        </mxCell>
        <mxCell id="F3helOzTDBdzIVGRm2Er-18" value="" style="endArrow=none;dashed=1;html=1;rounded=0;" edge="1" parent="1" target="F3helOzTDBdzIVGRm2Er-16">
          <mxGeometry width="50" height="50" relative="1" as="geometry">
            <mxPoint x="460" y="850" as="sourcePoint" />
            <mxPoint x="460" y="170" as="targetPoint" />
          </mxGeometry>
        </mxCell>
        <mxCell id="F3helOzTDBdzIVGRm2Er-16" value="" style="html=1;points=[[0,0,0,0,5],[0,1,0,0,-5],[1,0,0,0,5],[1,1,0,0,-5]];perimeter=orthogonalPerimeter;outlineConnect=0;targetShapes=umlLifeline;portConstraint=eastwest;newEdgeStyle={&quot;curved&quot;:0,&quot;rounded&quot;:0};" vertex="1" parent="1">
          <mxGeometry x="460" y="240" width="10" height="370" as="geometry" />
        </mxCell>
        <mxCell id="F3helOzTDBdzIVGRm2Er-22" value="&lt;span style=&quot;font-size: 12px; background-color: rgb(251, 251, 251);&quot;&gt;3. response: network error&lt;/span&gt;" style="endArrow=open;endSize=12;dashed=1;html=1;rounded=0;" edge="1" parent="1">
          <mxGeometry x="0.0323" y="-10" width="160" relative="1" as="geometry">
            <mxPoint x="460" y="280" as="sourcePoint" />
            <mxPoint x="305" y="280" as="targetPoint" />
            <mxPoint as="offset" />
          </mxGeometry>
        </mxCell>
        <mxCell id="F3helOzTDBdzIVGRm2Er-23" value="" style="endArrow=open;endFill=1;endSize=12;html=1;rounded=0;exitX=-0.001;exitY=0.991;exitDx=0;exitDy=0;exitPerimeter=0;" edge="1" parent="1" source="F3helOzTDBdzIVGRm2Er-24">
          <mxGeometry width="160" relative="1" as="geometry">
            <mxPoint x="300" y="310" as="sourcePoint" />
            <mxPoint x="460" y="310" as="targetPoint" />
          </mxGeometry>
        </mxCell>
        <mxCell id="F3helOzTDBdzIVGRm2Er-24" value="4. process of booking" style="text;html=1;align=center;verticalAlign=middle;resizable=0;points=[];autosize=1;strokeColor=none;fillColor=none;" vertex="1" parent="1">
          <mxGeometry x="305" y="280" width="140" height="30" as="geometry" />
        </mxCell>
        <mxCell id="F3helOzTDBdzIVGRm2Er-25" value="" style="endArrow=open;endFill=1;endSize=12;html=1;rounded=0;exitX=0.001;exitY=1.007;exitDx=0;exitDy=0;exitPerimeter=0;" edge="1" parent="1" source="F3helOzTDBdzIVGRm2Er-26">
          <mxGeometry width="160" relative="1" as="geometry">
            <mxPoint x="300" y="410" as="sourcePoint" />
            <mxPoint x="460" y="410" as="targetPoint" />
          </mxGeometry>
        </mxCell>
        <mxCell id="F3helOzTDBdzIVGRm2Er-26" value="6. process of booking" style="text;html=1;align=center;verticalAlign=middle;resizable=0;points=[];autosize=1;strokeColor=none;fillColor=none;" vertex="1" parent="1">
          <mxGeometry x="305" y="380" width="140" height="30" as="geometry" />
        </mxCell>
        <mxCell id="F3helOzTDBdzIVGRm2Er-27" value="" style="endArrow=open;endFill=1;endSize=12;html=1;rounded=0;exitX=0.004;exitY=0.996;exitDx=0;exitDy=0;exitPerimeter=0;" edge="1" parent="1" source="F3helOzTDBdzIVGRm2Er-28">
          <mxGeometry width="160" relative="1" as="geometry">
            <mxPoint x="300" y="560" as="sourcePoint" />
            <mxPoint x="460" y="560" as="targetPoint" />
          </mxGeometry>
        </mxCell>
        <mxCell id="F3helOzTDBdzIVGRm2Er-28" value="8. process of booking" style="text;html=1;align=center;verticalAlign=middle;resizable=0;points=[];autosize=1;strokeColor=none;fillColor=none;" vertex="1" parent="1">
          <mxGeometry x="305" y="530" width="140" height="30" as="geometry" />
        </mxCell>
        <mxCell id="F3helOzTDBdzIVGRm2Er-29" value="&lt;span style=&quot;font-size: 12px; background-color: rgb(251, 251, 251);&quot;&gt;5. response: network error&lt;/span&gt;" style="endArrow=open;endSize=12;dashed=1;html=1;rounded=0;" edge="1" parent="1">
          <mxGeometry x="0.0323" y="-10" width="160" relative="1" as="geometry">
            <mxPoint x="460" y="339.76" as="sourcePoint" />
            <mxPoint x="305" y="339.76" as="targetPoint" />
            <mxPoint as="offset" />
          </mxGeometry>
        </mxCell>
        <mxCell id="F3helOzTDBdzIVGRm2Er-30" value="&lt;span style=&quot;font-size: 12px; background-color: rgb(251, 251, 251);&quot;&gt;7. response: network error&lt;/span&gt;" style="endArrow=open;endSize=12;dashed=1;html=1;rounded=0;" edge="1" parent="1">
          <mxGeometry x="0.0323" y="-10" width="160" relative="1" as="geometry">
            <mxPoint x="460" y="440" as="sourcePoint" />
            <mxPoint x="305" y="440" as="targetPoint" />
            <mxPoint as="offset" />
          </mxGeometry>
        </mxCell>
        <mxCell id="F3helOzTDBdzIVGRm2Er-31" value="&lt;span style=&quot;font-size: 12px; background-color: rgb(251, 251, 251);&quot;&gt;9. response: network error&lt;/span&gt;" style="endArrow=open;endSize=12;dashed=1;html=1;rounded=0;" edge="1" parent="1">
          <mxGeometry x="0.0323" y="-10" width="160" relative="1" as="geometry">
            <mxPoint x="460" y="590" as="sourcePoint" />
            <mxPoint x="305" y="590" as="targetPoint" />
            <mxPoint as="offset" />
          </mxGeometry>
        </mxCell>
        <mxCell id="F3helOzTDBdzIVGRm2Er-34" value="" style="endArrow=none;dashed=1;html=1;rounded=0;" edge="1" parent="1">
          <mxGeometry width="50" height="50" relative="1" as="geometry">
            <mxPoint x="774" y="850" as="sourcePoint" />
            <mxPoint x="774" y="170" as="targetPoint" />
          </mxGeometry>
        </mxCell>
        <mxCell id="F3helOzTDBdzIVGRm2Er-35" value="" style="endArrow=open;endFill=1;endSize=12;html=1;rounded=0;exitX=0.004;exitY=0.996;exitDx=0;exitDy=0;exitPerimeter=0;" edge="1" parent="1" source="F3helOzTDBdzIVGRm2Er-36">
          <mxGeometry width="160" relative="1" as="geometry">
            <mxPoint x="300" y="720" as="sourcePoint" />
            <mxPoint x="770" y="720" as="targetPoint" />
          </mxGeometry>
        </mxCell>
        <mxCell id="F3helOzTDBdzIVGRm2Er-36" value="11. request network error notification" style="text;html=1;align=center;verticalAlign=middle;resizable=0;points=[];autosize=1;strokeColor=none;fillColor=none;" vertex="1" parent="1">
          <mxGeometry x="304" y="690" width="220" height="30" as="geometry" />
        </mxCell>
        <mxCell id="F3helOzTDBdzIVGRm2Er-37" value="" style="html=1;points=[[0,0,0,0,5],[0,1,0,0,-5],[1,0,0,0,5],[1,1,0,0,-5]];perimeter=orthogonalPerimeter;outlineConnect=0;targetShapes=umlLifeline;portConstraint=eastwest;newEdgeStyle={&quot;curved&quot;:0,&quot;rounded&quot;:0};" vertex="1" parent="1">
          <mxGeometry x="770" y="710" width="10" height="60" as="geometry" />
        </mxCell>
        <mxCell id="F3helOzTDBdzIVGRm2Er-39" value="" style="endArrow=open;endFill=1;endSize=12;html=1;rounded=0;exitX=0.004;exitY=0.996;exitDx=0;exitDy=0;exitPerimeter=0;" edge="1" parent="1">
          <mxGeometry width="160" relative="1" as="geometry">
            <mxPoint x="770.0000000000001" y="764.5200000000001" as="sourcePoint" />
            <mxPoint x="180" y="765" as="targetPoint" />
          </mxGeometry>
        </mxCell>
        <mxCell id="F3helOzTDBdzIVGRm2Er-40" value="12. send request network error notification" style="text;html=1;align=center;verticalAlign=middle;resizable=0;points=[];autosize=1;strokeColor=none;fillColor=none;" vertex="1" parent="1">
          <mxGeometry x="420" y="734.52" width="250" height="30" as="geometry" />
        </mxCell>
        <mxCell id="F3helOzTDBdzIVGRm2Er-42" value="&lt;span style=&quot;color: rgb(17, 17, 17); font-family: -apple-system, Roboto, SegoeUI, &amp;quot;Segoe UI&amp;quot;, &amp;quot;Helvetica Neue&amp;quot;, Helvetica, &amp;quot;Microsoft YaHei&amp;quot;, &amp;quot;Meiryo UI&amp;quot;, Meiryo, &amp;quot;Arial Unicode MS&amp;quot;, sans-serif; font-size: 14px; text-align: start; background-color: rgb(247, 247, 247);&quot;&gt;Session Management System)&lt;/span&gt;" style="rounded=1;whiteSpace=wrap;html=1;" vertex="1" parent="1">
          <mxGeometry x="542.5" y="110" width="145" height="40" as="geometry" />
        </mxCell>
        <mxCell id="F3helOzTDBdzIVGRm2Er-43" value="" style="endArrow=none;dashed=1;html=1;rounded=0;" edge="1" parent="1" source="F3helOzTDBdzIVGRm2Er-44">
          <mxGeometry width="50" height="50" relative="1" as="geometry">
            <mxPoint x="615" y="860" as="sourcePoint" />
            <mxPoint x="615" y="170" as="targetPoint" />
          </mxGeometry>
        </mxCell>
        <mxCell id="F3helOzTDBdzIVGRm2Er-45" value="" style="endArrow=none;dashed=1;html=1;rounded=0;" edge="1" parent="1" target="F3helOzTDBdzIVGRm2Er-44">
          <mxGeometry width="50" height="50" relative="1" as="geometry">
            <mxPoint x="615" y="850" as="sourcePoint" />
            <mxPoint x="614.5" y="180" as="targetPoint" />
          </mxGeometry>
        </mxCell>
        <mxCell id="F3helOzTDBdzIVGRm2Er-44" value="" style="html=1;points=[[0,0,0,0,5],[0,1,0,0,-5],[1,0,0,0,5],[1,1,0,0,-5]];perimeter=orthogonalPerimeter;outlineConnect=0;targetShapes=umlLifeline;portConstraint=eastwest;newEdgeStyle={&quot;curved&quot;:0,&quot;rounded&quot;:0};" vertex="1" parent="1">
          <mxGeometry x="610" y="650" width="10" height="20" as="geometry" />
        </mxCell>
        <mxCell id="F3helOzTDBdzIVGRm2Er-46" value="" style="endArrow=open;endFill=1;endSize=12;html=1;rounded=0;" edge="1" parent="1" source="F3helOzTDBdzIVGRm2Er-14">
          <mxGeometry width="160" relative="1" as="geometry">
            <mxPoint x="300" y="660" as="sourcePoint" />
            <mxPoint x="610" y="660" as="targetPoint" />
          </mxGeometry>
        </mxCell>
        <mxCell id="F3helOzTDBdzIVGRm2Er-47" value="10. saving unfinished user actions" style="text;html=1;align=center;verticalAlign=middle;resizable=0;points=[];autosize=1;strokeColor=none;fillColor=none;" vertex="1" parent="1">
          <mxGeometry x="305" y="630" width="200" height="30" as="geometry" />
        </mxCell>
      </root>
    </mxGraphModel>
  </diagram>
</mxfile>
